<svg xmlns="http://www.w3.org/2000/svg" xmlns:xlink="http://www.w3.org/1999/xlink" width="500" zoomAndPan="magnify" viewBox="0 0 375 374.999991" height="500" preserveAspectRatio="xMidYMid meet" version="1.0"><defs><g/><clipPath id="6b88d4ffe4"><path d="M 65.945312 65.945312 L 308.945312 65.945312 L 308.945312 308.945312 L 65.945312 308.945312 Z M 65.945312 65.945312 " clip-rule="nonzero"/></clipPath><clipPath id="4cc58b2362"><path d="M 187.5 65.945312 C 120.367188 65.945312 65.945312 120.367188 65.945312 187.5 C 65.945312 254.632812 120.367188 309.050781 187.5 309.050781 C 254.632812 309.050781 309.050781 254.632812 309.050781 187.5 C 309.050781 120.367188 254.632812 65.945312 187.5 65.945312 Z M 187.5 65.945312 " clip-rule="nonzero"/></clipPath></defs><g clip-path="url(#6b88d4ffe4)"><g clip-path="url(#4cc58b2362)"><path stroke-linecap="butt" transform="matrix(0.75, 0, 0, 0.75, 65.946569, 65.946564)" fill="none" stroke-linejoin="miter" d="M 162.071252 -0.00166929 C 72.560829 -0.00166929 -0.00167529 72.560835 -0.00167529 162.071258 C -0.00167529 251.581681 72.560829 324.138977 162.071252 324.138977 C 251.581675 324.138977 324.138971 251.581681 324.138971 162.071258 C 324.138971 72.560835 251.581675 -0.00166929 162.071252 -0.00166929 Z M 162.071252 -0.00166929 " stroke="#ffffff" stroke-width="28" stroke-opacity="1" stroke-miterlimit="4"/></g></g><g fill="#ffffff" fill-opacity="1"><g transform="translate(131.58137, 252.36213)"><g><path d="M 9.890625 -5.9375 C 14.085938 -6.050781 17.082031 -7.003906 18.875 -8.796875 C 20.675781 -10.597656 21.695312 -12.726562 21.9375 -15.1875 C 22.175781 -17.644531 22.296875 -21.929688 22.296875 -28.046875 L 22.296875 -105.71875 C 22.296875 -110.75 22.472656 -115.0625 22.828125 -118.65625 L 9.890625 -117.9375 L 9.890625 -125.84375 L 96.359375 -125.84375 L 97.265625 -94.390625 L 91.328125 -94.390625 C 91.328125 -104.210938 89.195312 -110.921875 84.9375 -114.515625 C 80.6875 -118.109375 74.726562 -119.785156 67.0625 -119.546875 L 51.59375 -119.1875 C 47.28125 -119.070312 44.164062 -118.265625 42.25 -116.765625 C 40.332031 -115.265625 39.132812 -113.164062 38.65625 -110.46875 C 38.175781 -107.78125 37.9375 -103.554688 37.9375 -97.796875 L 37.9375 -69.03125 L 71.734375 -68.859375 L 70.46875 -84.3125 L 78.390625 -84.3125 L 78.390625 -46.5625 L 72.453125 -46.5625 C 72.453125 -51 71.910156 -54.382812 70.828125 -56.71875 C 69.753906 -59.0625 68.109375 -60.617188 65.890625 -61.390625 C 63.671875 -62.171875 60.582031 -62.5625 56.625 -62.5625 L 51.0625 -62.390625 L 37.9375 -61.84375 L 37.9375 -20.671875 C 37.9375 -14.441406 37.753906 -9.769531 37.390625 -6.65625 L 71.734375 -7.1875 C 80.117188 -7.3125 86.53125 -9.441406 90.96875 -13.578125 C 95.40625 -17.710938 97.625 -24.875 97.625 -35.0625 L 103.734375 -35.0625 L 102.65625 0 L 9.890625 0 Z M 9.890625 -5.9375 "/></g></g></g></svg>